<svg xmlns="http://www.w3.org/2000/svg" width="21" height="15" viewBox="0 0 21 15"><path fill="#0756a5" d="M19.27 9.28v-.01h-7.15a2.4 2.4 0 0 1-2.4-2.4V2.54c0-.3-.24-.54-.54-.54H6.9c-.55 0-1.03.27-1.33.67l-.07.1-1.93 2.9-1.12.18c-.9 0-1.63.73-1.63 1.62v2.38a.95.95 0 0 0-.82.93v1.17c0 .5.4.93.93.93h1.15a2.5 2.5 0 0 0 4.8 0h6.03a2.5 2.5 0 0 0 4.8 0h1.33c.5 0 .93-.4.93-.92v-1.78c0-.42-.3-.8-.7-.9zM4.48 13.43c-.68 0-1.25-.58-1.25-1.25s.55-1.25 1.25-1.25c.67 0 1.25.58 1.25 1.25s-.55 1.25-1.25 1.25zm10.83 0a1.25 1.25 0 0 1 0-2.5c.68 0 1.25.58 1.25 1.25.01.67-.54 1.25-1.25 1.25z"/><path fill="#fc2a1c" d="M13.31 8.13h6.11c.73 0 1.32-.62 1.32-1.37V1.37c0-.75-.59-1.37-1.32-1.37h-6.11C12.59 0 12 .62 12 1.37v5.39c0 .75.59 1.37 1.31 1.37zm6.05-1.37H18.2l1.16-1.16zm0-2.58l-2.58 2.58h-1.13l3.71-3.72zm-5.98-2.02v-.79h1.11l-1.11 1.12v-.32-.01zm2.53-.78h1.13l-3.66 3.66V3.91zm-2.53 5.09l5.09-5.09h.89v.24l-5.14 5.14h-.84z"/></svg>