<svg xmlns="http://www.w3.org/2000/svg" width="20" height="20" viewBox="0 0 20 20"><path fill="#ed1c24" d="M10.32 0c1.36 1.36 2.72 2.68 4.04 4.04-.04.08-.08.12-.08.2h-1.44c-.6 0-.76.2-.76.76v2.36c0 .48-.2.64-.64.64H9.08c-.48 0-.68-.2-.68-.68V5.16c0-.84-.12-.92-.96-.92H6.08A.3.3 0 0 1 6 4.08L10.04.04c.08-.04.16-.04.28-.04zM6.04 15.88H7.4c.76 0 .88-.08.88-.84v-2.4c0-.44.2-.64.64-.64h2.4c.44 0 .64.2.64.64v2.52c0 .56.16.72.72.72h1.56c-.2.28-.28.44-.4.56-1.08 1.08-2.12 2.16-3.2 3.2-.44.44-.64.44-1.12 0l-3.2-3.2-.32-.36c0-.08 0-.12.04-.2zM4.08 14.4c-.24-.2-.36-.32-.48-.44L.36 10.72c-.48-.48-.48-.64 0-1.08L3.6 6.4c.12-.12.24-.2.48-.4v8.4zM16 14.12V6c.16.12.28.16.4.24l3.36 3.36c.32.28.28.6 0 .88l-3.36 3.36c-.08.12-.2.16-.4.28z"/></svg>